<svg id="Capa_1" enable-background="new 0 0 512 512" height="512" viewBox="0 0 512 512" width="512" xmlns="http://www.w3.org/2000/svg"><g><g><g><g><g fill="#3351c5"><path d="m54.727 120.726h-4.009v-96.977c0-6.059-3.515-11.567-9.009-14.12-5.495-2.552-11.971-1.686-16.602 2.221l-14.75 12.448c-6.571 5.546-7.402 15.369-1.857 21.94 2.888 3.422 6.934 5.288 11.079 5.506v68.982h-4.009c-8.599 0-15.57 6.971-15.57 15.57s6.971 15.57 15.57 15.57h39.158c8.599 0 15.57-6.971 15.57-15.57s-6.972-15.57-15.571-15.57z"/><path d="m149.539 8.18h-10.576c-23.181 0-42.041 18.859-42.041 42.041v59.605c0 23.181 18.859 42.041 42.041 42.041h10.576c23.182 0 42.041-18.859 42.041-42.041v-59.606c0-23.181-18.859-42.04-42.041-42.04zm10.902 101.645c0 6.011-4.89 10.901-10.901 10.901h-10.576c-6.011 0-10.901-4.89-10.901-10.901v-59.605c0-6.011 4.89-10.901 10.901-10.901h10.576c6.011 0 10.901 4.89 10.901 10.901z"/></g></g><g><g fill="#3351c5"><path d="m275.259 120.726h-4.009v-96.977c0-6.059-3.515-11.567-9.009-14.12-5.495-2.552-11.971-1.686-16.602 2.221l-14.75 12.448c-6.571 5.546-7.403 15.369-1.857 21.94 2.888 3.422 6.934 5.288 11.079 5.506v68.982h-4.009c-8.599 0-15.57 6.971-15.57 15.57s6.971 15.57 15.57 15.57h39.158c8.599 0 15.57-6.971 15.57-15.57s-6.972-15.57-15.571-15.57z"/><path d="m370.072 8.18h-10.576c-23.181 0-42.041 18.859-42.041 42.041v59.605c0 23.181 18.859 42.041 42.041 42.041h10.576c23.182 0 42.041-18.859 42.041-42.041v-59.606c-.001-23.181-18.86-42.04-42.041-42.04zm10.901 101.645c0 6.011-4.89 10.901-10.901 10.901h-10.576c-6.011 0-10.901-4.89-10.901-10.901v-59.605c0-6.011 4.89-10.901 10.901-10.901h10.576c6.011 0 10.901 4.89 10.901 10.901z"/></g></g></g><g><g><g><path d="m54.727 296.704h-4.009v-96.977c0-6.059-3.515-11.567-9.009-14.12-5.495-2.552-11.971-1.686-16.602 2.221l-14.75 12.448c-6.571 5.546-7.403 15.369-1.857 21.94 2.888 3.422 6.934 5.288 11.079 5.506v68.982h-4.009c-8.599 0-15.57 6.971-15.57 15.57s6.971 15.57 15.57 15.57h39.158c8.599 0 15.57-6.971 15.57-15.57s-6.972-15.57-15.571-15.57z" fill="#3351c5"/></g></g></g><g><g><g fill="#3351c5"><path d="m54.727 472.681h-4.009v-96.977c0-6.059-3.515-11.567-9.009-14.12-5.495-2.552-11.971-1.686-16.602 2.221l-14.75 12.448c-6.571 5.546-7.403 15.369-1.857 21.94 2.888 3.422 6.934 5.288 11.079 5.506v68.982h-4.009c-8.599 0-15.57 6.971-15.57 15.57s6.971 15.57 15.57 15.57h39.158c8.599 0 15.57-6.971 15.57-15.57-.001-8.599-6.972-15.57-15.571-15.57z"/><path d="m196.172 402.175v59.605c0 23.181 18.859 42.041 42.041 42.041h10.576c23.181 0 42.041-18.859 42.041-42.041v-59.605c0-23.181-18.859-42.041-42.041-42.041h-10.576c-23.183 0-42.041 18.86-42.041 42.041zm31.139 0c0-6.011 4.89-10.901 10.901-10.901h10.576c6.011 0 10.901 4.89 10.901 10.901v59.605c0 6.011-4.89 10.901-10.901 10.901h-10.576c-6.011 0-10.901-4.89-10.901-10.901z"/></g></g><g><g><path d="m151.65 472.681h-4.009v-96.977c0-6.059-3.515-11.567-9.009-14.12-5.495-2.552-11.971-1.686-16.602 2.221l-14.75 12.448c-6.571 5.546-7.403 15.369-1.857 21.94 2.888 3.422 6.934 5.288 11.079 5.506v68.982h-4.009c-8.599 0-15.57 6.971-15.57 15.57s6.971 15.57 15.57 15.57h39.158c8.599 0 15.57-6.971 15.57-15.57-.002-8.599-6.972-15.57-15.571-15.57z" fill="#3351c5"/></g></g><g><g><path d="m372.478 472.681h-4.009v-96.977c0-6.059-3.515-11.567-9.009-14.12-5.495-2.552-11.971-1.686-16.602 2.221l-14.75 12.448c-6.571 5.546-7.403 15.369-1.857 21.94 2.888 3.422 6.934 5.288 11.079 5.506v68.982h-4.009c-8.599 0-15.57 6.971-15.57 15.57s6.971 15.57 15.57 15.57h39.158c8.599 0 15.57-6.971 15.57-15.57-.001-8.599-6.972-15.57-15.571-15.57z" fill="#3351c5"/></g></g><g><g><path d="m161.183 296.704h-4.009v-96.977c0-6.059-3.515-11.567-9.009-14.12-5.495-2.552-11.971-1.686-16.602 2.221l-14.75 12.448c-6.571 5.546-7.403 15.369-1.857 21.94 2.888 3.422 6.934 5.288 11.079 5.506v68.982h-4.009c-8.599 0-15.57 6.971-15.57 15.57s6.971 15.57 15.57 15.57h39.158c8.599 0 15.57-6.971 15.57-15.57s-6.972-15.57-15.571-15.57z" fill="#3351c5"/></g><g><g><path d="m265.868 296.704h-4.009v-96.977c0-6.059-3.515-11.567-9.009-14.12-5.495-2.552-11.971-1.686-16.602 2.221l-14.75 12.448c-6.571 5.546-7.403 15.369-1.857 21.94 2.888 3.422 6.934 5.288 11.079 5.506v68.982h-4.009c-8.599 0-15.57 6.971-15.57 15.57s6.971 15.57 15.57 15.57h39.158c8.599 0 15.57-6.971 15.57-15.57s-6.972-15.57-15.571-15.57z" fill="#3351c5"/></g><path d="m496.43 120.726h-4.009v-96.977c0-6.059-3.515-11.567-9.009-14.12-5.496-2.552-11.971-1.686-16.602 2.221l-14.75 12.448c-6.571 5.546-7.403 15.369-1.857 21.94 2.888 3.422 6.934 5.288 11.079 5.506v68.982h-4.009c-8.599 0-15.57 6.971-15.57 15.57s6.971 15.57 15.57 15.57h39.158c8.599 0 15.57-6.971 15.57-15.57s-6.972-15.57-15.571-15.57z" fill="#3351c5"/></g></g></g><g><g><path d="m469.959 184.157h-10.576c-23.181 0-42.041 18.859-42.041 42.041v59.605c0 23.181 18.859 42.04 42.041 42.04h10.576c23.182 0 42.041-18.859 42.041-42.04v-59.605c0-23.182-18.859-42.041-42.041-42.041zm10.902 101.646c0 6.011-4.89 10.901-10.901 10.901h-10.576c-6.011 0-10.901-4.89-10.901-10.901v-59.605c0-6.011 4.89-10.901 10.901-10.901h10.576c6.011 0 10.901 4.89 10.901 10.901z" fill="#3351c5"/></g></g></g><g><g><g><g><g><g><g><g><path d="m502.728 473.418-10.502 10.502c-4.023 4.023-10.546 4.023-14.569 0l-43.183-43.183 25.071-25.071 43.183 43.183c4.023 4.023 4.023 10.546 0 14.569z" fill="#557983"/><path d="m481.956 438.083c-2.501 5.334-5.95 10.324-10.347 14.721-4.35 4.338-9.304 7.823-14.697 10.371l-22.437-22.437 25.068-25.068z" fill="#3f5959"/></g><g><path d="m454.845 436.037c-11.251 11.251-29.492 11.251-40.743 0l-20.371-20.371 40.743-40.743 20.371 20.371c11.251 11.251 11.251 29.492 0 40.743z" fill="#fcb44d"/><path d="m459.543 401.459c-10.62 15.325-23.942 28.648-39.268 39.267-2.216-1.245-4.291-2.809-6.175-4.694l-20.375-20.363 40.749-40.749 20.375 20.375c1.885 1.885 3.449 3.959 4.694 6.164z" fill="#fca62f"/></g><g><g><circle cx="332.386" cy="313.579" fill="#a9d3d8" r="130.916"/><path d="m463.3 313.584c0 72.301-58.611 130.912-130.912 130.912-7.313 0-14.496-.604-21.477-1.754 62.084-10.252 109.435-64.17 109.435-129.157 0-64.999-47.351-118.917-109.435-129.169 6.981-1.15 14.164-1.754 21.477-1.754 72.301-.002 130.912 58.609 130.912 130.922z" fill="#90bac4"/></g><g><circle cx="332.386" cy="313.579" fill="#d9ecfd" r="92.334"/><path d="m424.72 313.58c0 50.99-41.34 92.33-92.33 92.33-5.28 0-10.46-.44-15.5-1.3 43.62-7.37 76.84-45.32 76.84-91.03 0-45.72-33.22-83.67-76.84-91.04 5.04-.86 10.22-1.3 15.5-1.3 50.99 0 92.33 41.34 92.33 92.34z" fill="#b5dbfd"/><g><g><path d="m369.237 350.962v46.966c-10.971 4.904-23.076 7.726-35.809 7.974v-22.746c-4.759-.258-9.416-2.4-12.733-6.336-6.377-7.551-5.419-18.852 2.132-25.229l16.957-14.309c5.326-4.492 12.774-5.491 19.089-2.555 6.326 2.935 10.364 9.271 10.364 16.235z" fill="#5169cd"/></g><g><path d="m272.256 291.376c0 9.89-8.015 17.905-17.905 17.905h-14.979c.577-12.785 3.77-24.899 9.035-35.809h5.944c9.89 0 17.905 8.015 17.905 17.904z" fill="#5169cd"/></g><g><path d="m389.532 291.376c0 9.89-8.015 17.905-17.894 17.905h-45.029c-9.89 0-17.905-8.015-17.905-17.905s8.015-17.905 17.905-17.905h4.615v-52.23h.381c12.548 0 24.508 2.503 35.418 7.036v45.194h4.615c9.879.001 17.894 8.016 17.894 17.905z" fill="#5169cd"/></g></g></g></g></g></g></g></g></g></g></g></g></svg>